<svg xmlns="http://www.w3.org/2000/svg" viewBox="0 0 64 64" role="img" aria-label="Everlume">
  <defs>
    <linearGradient id="bg" x1="0" y1="0" x2="1" y2="1">
      <stop offset="0%" stop-color="#46654d" />
      <stop offset="100%" stop-color="#87a48d" />
    </linearGradient>
    <linearGradient id="petal" x1="0" y1="0" x2="0" y2="1">
      <stop offset="0%" stop-color="#f8f7f2" />
      <stop offset="100%" stop-color="#e4e9df" />
    </linearGradient>
  </defs>
  <rect x="2" y="2" width="60" height="60" rx="16" fill="url(#bg)" />
  <path d="M32 18c-7 0-12 5.4-12 12 0 8.6 8.5 14.9 12 16.8 3.5-1.9 12-8.2 12-16.8 0-6.6-5-12-12-12z" fill="url(#petal)" />
  <path d="M32 22c-4.6 0-8.2 3.7-8.2 8.1 0 5.7 5.7 10.2 8.2 11.7 2.5-1.5 8.2-6 8.2-11.7 0-4.4-3.6-8.1-8.2-8.1z" fill="#52765b"/>
  <circle cx="32" cy="30" r="3.2" fill="#f3f4ed"/>
</svg>
